<svg id="Calque_1" data-name="Calque 1" xmlns="http://www.w3.org/2000/svg" xmlns:xlink="http://www.w3.org/1999/xlink" viewBox="0 0 250.82 277.9"><defs><style>.cls-1{fill:url(#Dégradé_sans_nom_13);}</style><linearGradient id="Dégradé_sans_nom_13" x1="172.23" y1="426.81" x2="423.05" y2="426.81" gradientUnits="userSpaceOnUse"><stop offset="0" stop-color="#324194"/><stop offset="0.6" stop-color="#959ac8"/><stop offset="1" stop-color="#dad8ed"/></linearGradient></defs><path class="cls-1" d="M340.63,490.92a17,17,0,0,1-23.28,6.24l-11.19-6.46a17,17,0,0,1-6.24-23.28l79.73-138.08-63.06-36.4a37.9,37.9,0,0,0-37.9,0l-87.51,50.52a37.89,37.89,0,0,0-19,32.82V477.33A37.83,37.83,0,0,0,179,498.87l71.69-124.18a17,17,0,0,1,23.28-6.24l11.18,6.46a17,17,0,0,1,6.24,23.28L217.83,525.54l60.86,35.14a37.9,37.9,0,0,0,37.9,0l87.51-50.53a37.89,37.89,0,0,0,18.95-32.82V376.28a37.87,37.87,0,0,0-5.19-19.13Z" transform="translate(-172.23 -287.86)"/></svg>